<?xml version="1.0" standalone="no"?>
<!DOCTYPE svg PUBLIC "-//W3C//DTD SVG 20010904//EN"
 "http://www.w3.org/TR/2001/REC-SVG-20010904/DTD/svg10.dtd">
<svg version="1.0" xmlns="http://www.w3.org/2000/svg"
 width="200.000000pt" height="200.000000pt" viewBox="0 0 200.000000 200.000000"
 preserveAspectRatio="xMidYMid meet">

<g transform="translate(0.000000,200.000000) scale(0.100000,-0.100000)"
fill="#000000" stroke="none">
<path d="M912 1737 c-94 -30 -136 -161 -79 -248 23 -34 87 -69 128 -69 19 0
52 -9 75 -19 108 -49 133 -182 49 -265 -33 -33 -46 -38 -132 -51 -86 -13 -147
-81 -147 -164 1 -90 58 -151 149 -159 101 -8 167 50 180 161 13 101 65 151
174 167 75 11 117 39 143 98 50 111 -37 232 -166 232 -35 0 -74 21 -109 57
-20 22 -31 48 -41 103 -17 86 -37 117 -96 148 -48 24 -76 26 -128 9z"/>
<path d="M615 1371 c-102 -47 -101 -187 1 -233 93 -40 184 17 184 117 0 54
-25 94 -73 116 -52 23 -62 23 -112 0z"/>
<path d="M1247 513 c-9 -8 -9 -156 -1 -177 4 -9 17 -16 33 -16 24 1 24 2 9 14
-15 11 -18 29 -18 100 0 79 -5 97 -23 79z"/>
<path d="M1470 493 c0 -16 -5 -34 -11 -40 -8 -8 -8 -13 0 -17 6 -4 11 -25 11
-46 0 -21 3 -45 6 -54 7 -17 44 -22 44 -6 0 6 -4 10 -10 10 -15 0 -12 88 3 93
9 3 9 7 0 18 -6 8 -13 25 -15 38 -5 36 -28 39 -28 4z"/>
<path d="M1560 505 c0 -8 5 -15 10 -15 6 0 10 7 10 15 0 8 -4 15 -10 15 -5 0
-10 -7 -10 -15z"/>
<path d="M38 449 c-10 -5 -18 -17 -18 -24 0 -17 16 -20 25 -5 9 15 35 12 35
-4 0 -7 -13 -16 -29 -19 -40 -8 -51 -44 -22 -68 20 -16 37 -18 101 -10 2 1 -1
6 -8 13 -7 7 -12 34 -12 60 0 43 -3 50 -26 58 -30 12 -25 12 -46 -1z m42 -89
c0 -13 -7 -20 -20 -20 -22 0 -28 25 -7 33 22 10 27 7 27 -13z"/>
<path d="M165 452 c-10 -10 -5 -142 5 -142 6 0 10 21 10 48 0 54 11 77 33 69
11 -4 17 -22 19 -57 4 -68 22 -68 28 0 4 40 9 55 20 55 11 0 16 -15 20 -55 6
-70 24 -67 28 4 3 62 -16 92 -52 81 -23 -7 -25 -7 -73 -2 -18 2 -35 2 -38 -1z"/>
<path d="M381 444 c-17 -12 -20 -19 -11 -28 8 -8 13 -7 19 3 9 14 41 9 41 -7
0 -4 -15 -12 -32 -17 -24 -7 -34 -17 -36 -34 -5 -33 11 -45 62 -46 l44 -2 -5
56 c-4 39 -11 61 -25 74 -25 21 -28 21 -57 1z m47 -81 c-4 -22 -38 -30 -38
-10 0 14 13 24 33 26 5 1 7 -7 5 -16z"/>
<path d="M504 445 c-9 -22 1 -125 11 -128 6 -1 12 23 15 53 4 42 9 56 23 58
11 2 17 -3 18 -15 1 -10 2 -27 3 -38 1 -11 3 -30 4 -43 1 -13 7 -20 12 -17 13
8 13 105 0 125 -11 17 -80 21 -86 5z"/>
<path d="M657 448 c-15 -12 -22 -53 -18 -100 2 -26 39 -42 67 -29 21 9 24 17
24 65 0 44 -4 57 -19 66 -25 13 -34 13 -54 -2z m48 -63 c0 -33 -3 -40 -20 -40
-15 0 -21 8 -23 28 -5 39 5 59 25 55 14 -2 18 -13 18 -43z"/>
<path d="M830 440 c-11 -21 -12 -21 -31 -4 -26 23 -37 9 -17 -23 14 -24 14
-28 -4 -59 -23 -39 -7 -57 18 -19 l16 25 20 -25 c28 -35 43 -21 19 18 -18 29
-18 34 -4 61 10 19 11 32 5 38 -7 7 -14 3 -22 -12z"/>
<path d="M1003 450 c-15 -6 -23 -18 -23 -34 0 -19 8 -27 35 -36 19 -6 35 -18
35 -26 0 -16 -36 -19 -45 -4 -9 15 -25 12 -25 -5 0 -9 11 -20 25 -27 19 -9 29
-8 50 6 39 25 30 61 -18 74 -34 9 -30 27 6 26 31 -2 35 11 8 26 -22 11 -19 11
-48 0z"/>
<path d="M1128 449 c-27 -15 -25 -114 1 -129 28 -14 38 -13 61 10 12 12 20 33
20 55 0 22 -8 43 -20 55 -22 22 -37 24 -62 9z m47 -64 c0 -33 -3 -40 -20 -40
-15 0 -21 8 -23 28 -5 39 5 59 25 55 14 -2 18 -13 18 -43z"/>
<path d="M1326 453 c-11 -12 -6 -99 8 -118 8 -11 28 -20 50 -21 l36 -3 0 69
c0 38 -4 72 -10 75 -6 4 -10 -12 -10 -42 0 -56 -11 -78 -34 -70 -12 5 -16 20
-16 56 0 47 -9 68 -24 54z"/>
<path d="M1560 386 c0 -44 4 -76 10 -76 6 0 10 30 10 69 0 39 -4 73 -10 76 -6
4 -10 -22 -10 -69z"/>
<path d="M1642 444 c-33 -23 -32 -97 3 -120 23 -15 27 -15 50 0 35 23 36 97 3
120 -12 9 -25 16 -28 16 -3 0 -16 -7 -28 -16z m48 -60 c0 -38 -3 -45 -17 -42
-32 6 -30 88 2 88 11 0 15 -11 15 -46z"/>
<path d="M1766 452 c-10 -9 -6 -142 4 -142 5 0 10 26 12 58 3 49 6 57 23 57
17 0 21 -8 25 -55 3 -30 10 -55 15 -55 16 0 18 97 2 119 -14 18 -69 31 -81 18z"/>
<path d="M1913 450 c-15 -6 -23 -18 -23 -34 0 -19 8 -27 35 -36 19 -6 35 -18
35 -26 0 -17 -31 -19 -48 -2 -9 9 -15 9 -23 1 -8 -8 -4 -15 12 -27 30 -21 42
-20 69 2 31 25 19 59 -23 70 -38 10 -34 28 6 26 31 -2 35 11 8 26 -22 11 -19
11 -48 0z"/>
</g>
</svg>
