<?xml version="1.0" standalone="no"?>
<!DOCTYPE svg PUBLIC "-//W3C//DTD SVG 20010904//EN"
 "http://www.w3.org/TR/2001/REC-SVG-20010904/DTD/svg10.dtd">
<svg version="1.0" xmlns="http://www.w3.org/2000/svg"
 width="400.000000pt" height="400.000000pt" viewBox="0 0 400.000000 400.000000"
 preserveAspectRatio="xMidYMid meet">
<metadata>
Created by potrace 1.16, written by Peter Selinger 2001-2019
</metadata>
<g transform="translate(0.000000,400.000000) scale(0.100000,-0.100000)"
fill="#000000" stroke="none">
<path d="M1790 3979 c-315 -85 -521 -386 -481 -702 19 -144 74 -264 168 -363
129 -135 263 -195 473 -209 131 -8 209 -28 303 -77 270 -141 405 -463 316
-756 -51 -167 -176 -315 -329 -389 -105 -51 -154 -62 -300 -73 -224 -16 -371
-90 -501 -250 -147 -181 -176 -468 -69 -679 89 -176 237 -296 431 -346 89 -24
259 -17 349 14 171 58 312 184 384 342 44 97 55 145 66 293 10 134 24 187 76
286 77 148 219 264 384 315 30 9 112 20 182 25 216 15 340 71 475 213 124 132
180 285 170 472 -9 170 -66 295 -192 421 -125 125 -245 176 -442 189 -211 14
-331 64 -459 190 -132 131 -180 240 -194 441 -11 151 -22 198 -72 303 -56 119
-168 231 -288 290 -147 71 -304 89 -450 50z"/>
<path d="M691 2579 c-91 -15 -197 -73 -272 -148 -101 -101 -149 -218 -149
-361 0 -143 48 -260 149 -361 208 -209 519 -211 727 -5 74 74 123 158 143 246
13 58 13 182 0 240 -32 140 -150 284 -282 345 -108 50 -201 63 -316 44z"/>
</g>
</svg>
