<?xml version="1.0" encoding="utf-8"?>
<!-- Generator: Adobe Illustrator 19.2.1, SVG Export Plug-In . SVG Version: 6.00 Build 0)  -->
<svg version="1.1" id="layer" xmlns="http://www.w3.org/2000/svg" xmlns:xlink="http://www.w3.org/1999/xlink" x="0px" y="0px"
	 viewBox="0 0 652 652" style="enable-background:new 0 0 652 652;" xml:space="preserve">
<style type="text/css">
	.st0{fill:#25445F;}
	.st1{fill:#A69664;}
	.st2{fill:#848481;}
	.st3{fill:#E5323D;}
</style>
<g>
	<path class="st0" d="M234,303.9c-0.3-4.8-2.5-8.9-8-8.9c-5.5,0-8.3,3.8-8.7,8.9H234z M241.3,323.8c-3.9,1.9-7.3,3.6-13.7,3.6
		c-12.5,0-19.7-7.2-19.7-19.6c0-10.9,5.8-19.9,17.5-19.9c14,0,18.3,9.9,17.7,22.8h-25.8c0.4,6.1,4.7,8.6,10.8,8.6
		c5.2,0,10.2-2.1,13.3-4V323.8z M581.9,303.9c-0.3-4.8-2.5-8.9-8-8.9c-5.5,0-8.3,3.8-8.7,8.9H581.9z M589.3,323.8
		c-3.9,1.9-7.3,3.6-13.7,3.6c-12.5,0-19.7-7.2-19.7-19.6c0-10.9,5.8-19.9,17.5-19.9c14,0,18.3,9.9,17.7,22.8h-25.8
		c0.5,6.1,4.7,8.6,10.8,8.6c5.2,0,10.2-2.1,13.3-4V323.8z M257.3,299.2h4.5c5.1,0,9.8-2,9.8-7.9c0-5.9-4.5-8.2-9.8-8.2h-4.5V299.2z
		 M247,275.3h13c10.7,0,21.3,3.2,21.3,15.5c0,12-9.2,16.3-19.7,16.3h-4.3v19.4H247V275.3z M320.2,326.4h-9.3v-5.1h-0.2
		c-3,3.7-7.3,6-12.4,6c-9,0-12.8-6.3-12.8-14.8v-23.8h9.8v20.2c0,4.6,0.1,10.8,6.4,10.8c7.1,0,8.7-7.7,8.7-12.5v-18.5h9.8V326.4z
		 M401.7,284.6c-3.2-1.4-6.8-2.2-10.4-2.2c-3.1,0-6.5,1.7-7.6,4.7c-1.1,3.1,0.6,5.7,3.2,7.3c1.5,0.9,3.2,1.5,4.8,2.1
		c4.2,1.6,8.7,3.2,11.4,7c1.8,2.4,2.6,5.3,2.6,8.3c0,11.2-8.9,15.5-19.2,15.5c-5.6,0-9.8-1.6-14.9-2.8l0.8-9.4c3.5,1.9,9.6,4,13.6,4
		c3.4,0,7.5-1.8,8.3-5.3c1-4.1-3-7-6.3-8.5c-5.8-2.6-12.6-3.7-14.8-10.6c-0.6-1.7-0.8-3.8-0.7-5.6c0.2-2.7,1.3-6.1,3-8.3
		c5.8-7.8,16.7-7.3,24.9-5.2c0.5,0.1,2.6,0.7,3.2,1L401.7,284.6z M448.2,288.7h9.3v5.1h0.2c3.1-4.3,7.3-6,12.4-6
		c8.9,0,12.8,6.3,12.8,14.8v23.8H473v-20.2c0-4.6-0.1-10.8-6.4-10.8c-7.1,0-8.7,7.7-8.7,12.5v18.5h-9.8V288.7z M492.5,295.9h-7.3
		v-7.2h7.3v-12.6l9.8-3.6v16.2h8.7v7.2h-8.7v17.6c0,3.2,0.9,6.2,4.6,6.2c1.8,0,3.4-0.4,4.5-1l0.3,7.8c-2.1,0.6-4.3,0.9-7.3,0.9
		c-7.7,0-12-4.8-12-12.2V295.9z M516.7,271.4h9.8v22.4h0.2c2.5-3.7,6.7-6,11.9-6c8.9,0,12.8,6.3,12.8,14.8v23.8h-9.8v-20.2
		c0-4.6-0.1-10.8-6.4-10.8c-7.1,0-8.7,7.7-8.7,12.5v18.5h-9.8V271.4z M621.4,313.9c0.3,5.4-1.9,9.5-6.2,11.5
		c-1.5,0.7-2.9,1.2-4.2,1.5c-1.6,0.4-3.4,0.5-5.3,0.5c-3.8,0-8.1-1.8-11.3-3.8l0.6-7.4c0.5,0.3,1,0.6,1.4,0.9
		c2.1,1.3,4.3,2.5,6.7,3.2c0.9,0.2,1.9,0.4,2.8,0.4c2.5,0,4.7-0.7,5.7-2.2c1.4-2,0.3-4.7-1.5-6.1c-1.7-1.3-4-1.9-6-2.4l-0.3-0.1
		c-2.7-0.7-6-1.9-7.9-4.5c-1.1-1.6-1.6-3.6-1.6-5.9c0-4.3,2.3-7.9,6.2-9.8c2.5-1.2,5.4-1.8,8.6-1.8c4.2,0,7.4,0.7,10.5,1.8l-1.3,7.3
		c-1.3-0.5-2.6-1-3.9-1.3c-1-0.3-1.9-0.5-2.9-0.6c-1.8-0.3-3.7-0.3-5.4,0.4c-1.8,0.7-3,2.1-2.7,4c0.2,1.2,0.9,2.2,1.9,2.7
		c1.3,0.6,3.2,1.2,4.8,1.6C615.1,305.1,621,307.5,621.4,313.9 M189.8,314.5c-3.2,3.1-7.6,3.9-12.8,3.9h-5.8v-35.1h5.5
		c4.8,0,8.8,0.8,11.9,3c3.9,2.8,5.9,7.9,5.9,14.6C194.6,307.1,192.9,311.6,189.8,314.5 M194.2,279.1c-5-2.8-10.9-3.8-19.6-3.8h-5.5
		h-5.4h-2.3v2.2v46.8v2.1h2.2h5.5h8.9c7.5,0,14-1.7,18.7-5.5c5.1-4.3,8.2-10.9,8.2-19.8C205,290.1,201,282.9,194.2,279.1
		 M444.7,288.7l-14.1,37.5c-3.2,8.4-5.4,16.6-15.7,16.6c-0.3,0-0.6,0-0.9,0l-2.8-7.7c0.7,0.1,1.5,0.1,2.4,0.1c4,0,6.4-2.7,6.4-6.7
		l-14.4-39.7h10.9l9.1,27.6h0.1l9.1-27.6H444.7z M362.8,288.7l-14.1,37.5c-3.2,8.4-5.4,16.6-15.7,16.6c-0.3,0-0.6,0-0.9,0l-2.8-7.7
		c0.7,0.1,1.5,0.1,2.4,0.1c4,0,6.4-2.7,6.4-6.7l-14.4-39.7h10.9l9.1,27.6h0.1l9.1-27.6H362.8z"/>
	<path class="st1" d="M101.8,266.1c19,0.8,34.2,16.5,34.2,35.8c0,19.3-15.2,35-34.3,35.8c7.9-9.8,12.6-22.2,12.6-35.8
		C114.4,288.4,109.7,275.9,101.8,266.1 M64.4,301.9c0,11.7,5.6,22.1,14.3,28.7c8.7-6.5,14.3-16.9,14.3-28.7
		c0-11.7-5.6-22.1-14.3-28.7C70,279.8,64.4,290.2,64.4,301.9 M21.4,301.9c0,19.3,15.2,35,34.2,35.8c-7.9-9.8-12.6-22.2-12.6-35.8
		c0-13.1,4.7-25.7,12.8-35.8C36.7,266.9,21.4,282.6,21.4,301.9 M101.8,266.1c-14.5-12.9-31.4-13-46.1,0c0,0,13.4-0.5,23.1,7.1
		C88.6,265.3,101.8,266.1,101.8,266.1 M55.6,337.7c14.5,12.9,31.4,13,46.1,0c0,0-13.4,0.5-23.1-7.1
		C68.9,338.5,55.6,337.7,55.6,337.7"/>
</g>
<polygon class="st2" points="227.1,365.8 227.1,367.8 229.8,367.8 229.8,376 232.3,376 232.3,367.8 235,367.8 235,365.8 "/>
<polygon class="st2" points="242.7,376 242.7,371.6 239,371.6 239,376 236.4,376 236.4,365.8 239,365.8 239,369.5 242.7,369.5 
	242.7,365.8 245.3,365.8 245.3,376 "/>
<polygon class="st2" points="247.6,365.8 247.6,376 255.5,376 255.5,374 250.1,374 250.1,371.5 254.8,371.5 254.8,369.6 
	250.1,369.6 250.1,367.8 255.1,367.8 255.1,365.8 "/>
<polygon class="st2" points="440.9,365.8 440.9,376 443.5,376 443.5,371.8 448.4,371.8 448.4,369.9 443.5,369.9 443.5,367.7 
	448.8,367.7 448.8,365.8 "/>
<path class="st2" d="M456.5,376l-0.5-1.6h-3.8l-0.5,1.6H449l3.8-10.2h2.7l3.8,10.2H456.5z M454.1,368.2l-1.3,4.3h2.6L454.1,368.2z"
	/>
<g>
	<path class="st2" d="M469.7,376c0,0,0-5.6,0.1-7.6l-2.1,7.6h-2.2l-2.1-7.6c0,1.4,0.1,7.6,0.1,7.6h-2.5v-10.2h3.7l1.9,7.1l1.9-7.1
		h3.7V376H469.7z"/>
	<rect x="475.2" y="365.8" class="st2" width="2.5" height="10.2"/>
	<polygon class="st2" points="481,376 481,365.8 483.5,365.8 483.5,373.8 487.5,373.8 487.5,376 	"/>
	<polygon class="st2" points="493.1,371.1 493.1,376 490.6,376 490.6,371.2 486.8,365.8 489.7,365.8 491.9,369.2 494.1,365.8 
		497,365.8 	"/>
	<path class="st2" d="M507.1,365.4c3.7,0,5.2,3.1,5.2,5.5c0,2.7-1.9,5.3-5.1,5.3c-3.4,0-5.1-2.6-5.1-5.4
		C502,368.5,503.4,365.4,507.1,365.4 M507.1,374.1c1.9,0,2.6-1.8,2.6-3.2c0-1.8-0.8-3.3-2.6-3.3c-1.9,0-2.5,1.8-2.5,3.2
		C504.5,372.4,505.3,374.1,507.1,374.1"/>
	<polygon class="st2" points="522,365.8 522,367.7 516.7,367.7 516.7,369.9 521.5,369.9 521.5,371.8 516.7,371.8 516.7,376 
		514.1,376 514.1,365.8 	"/>
	<path class="st2" d="M536.9,373.6c-0.8,1.4-2.3,2.6-4.4,2.6c-2.7,0-4.9-2-4.9-5.4c0-3,2-5.4,4.9-5.4c1.9,0,3.6,1.1,4.3,2.6l-2,1
		c-0.2-0.8-1.1-1.6-2.2-1.6c-1.6,0-2.5,1.5-2.5,3.2c0,2.2,1.1,3.4,2.5,3.4c1.3,0,1.9-0.9,2.2-1.5L536.9,373.6z"/>
	<path class="st2" d="M543.3,365.4c3.7,0,5.2,3.1,5.2,5.5c0,2.7-1.9,5.3-5.1,5.3c-3.4,0-5.1-2.6-5.1-5.4
		C538.3,368.5,539.6,365.4,543.3,365.4 M543.4,374.1c1.9,0,2.6-1.8,2.6-3.2c0-1.9-0.8-3.3-2.6-3.3c-1.9,0-2.5,1.8-2.5,3.2
		C540.8,372.4,541.5,374.1,543.4,374.1"/>
	<path class="st2" d="M559.2,376c0,0,0-5.6,0.1-7.6l-2.1,7.6h-2.2l-2.1-7.6c0.1,1.4,0.1,7.6,0.1,7.6h-2.5v-10.2h3.7l1.9,7.1l1.9-7.1
		h3.7V376H559.2z"/>
	<path class="st2" d="M569.8,365.8c2.4,0,3.7,1.1,3.7,3.5c0,2.6-2.3,3.4-4.1,3.4h-2.1v3.3h-2.6v-10.2H569.8z M567.3,370.7h1.7
		c1.2,0,2-0.3,2-1.6c0-1.5-1.2-1.5-2-1.5h-1.6V370.7z"/>
	<path class="st2" d="M580.8,376l-0.5-1.6h-3.8L576,376h-2.7l3.8-10.2h2.7l3.8,10.2H580.8z M578.4,368.2l-1.3,4.3h2.6L578.4,368.2z"
		/>
	<polygon class="st2" points="590.8,376 587.2,369.9 587.2,376 584.8,376 584.8,365.8 587.3,365.8 590.9,372 590.9,365.8 
		593.3,365.8 593.3,376 	"/>
	<rect x="596.6" y="365.8" class="st2" width="2.5" height="10.2"/>
	<polygon class="st2" points="602.1,365.8 609.6,365.8 609.6,367.7 604.6,367.7 604.6,369.6 609.3,369.6 609.3,371.5 604.6,371.5 
		604.6,374 610.1,374 610.1,376 602.1,376 	"/>
	<path class="st2" d="M618.4,368.8c-0.7-0.8-1.6-1.3-2.7-1.3c-1,0-1.5,0.6-1.5,1.1c0,0.5,0.4,0.8,1.3,0.9l1.1,0.2
		c2.7,0.4,3.8,1.2,3.8,2.9c0,2.2-1.7,3.6-4.6,3.6c-2.4,0-3.6-0.9-4.6-2.1l1.9-1.2c0.7,0.8,1.9,1.3,3,1.3c0.8,0,1.9-0.3,1.9-1.2
		c0-0.7-0.9-0.9-1.8-1l-1.2-0.2c-1.8-0.2-3.3-1.1-3.3-2.9c0-2,1.5-3.4,4.1-3.4c2.1,0,3.5,1,4.5,1.9L618.4,368.8z"/>
	<path class="st2" d="M166.5,365.8c2.4,0,3.7,1.1,3.7,3.5c0,2.6-2.3,3.4-4.1,3.4H164v3.3h-2.6v-10.2H166.5z M164,370.7h1.7
		c1.2,0,2-0.3,2-1.6c0-1.5-1.2-1.5-2-1.5H164V370.7z"/>
	<path class="st2" d="M177,376l-0.5-1.6h-3.8l-0.5,1.6h-2.7l3.8-10.2h2.7l3.8,10.2H177z M174.6,368.2l-1.3,4.3h2.6L174.6,368.2z"/>
	<path class="st2" d="M185.6,365.8c1.5,0,3.9,0.4,3.9,3.3c0,1.7-1,2.4-2.1,2.8l2.4,4.1h-2.8l-2-3.6h-1.6v3.6h-2.6v-10.2H185.6z
		 M183.3,370.4h2.1c1.5,0,1.5-1.1,1.5-1.4c0-1.3-1.1-1.4-1.5-1.4h-2.1V370.4z"/>
	<polygon class="st2" points="195.3,367.8 195.3,376 192.7,376 192.7,367.8 190.1,367.8 190.1,365.8 198,365.8 198,367.8 	"/>
	<path class="st2" d="M207.4,365.5c3.7,0,5.2,3.1,5.2,5.5c0,2.7-1.9,5.3-5.1,5.3c-3.4,0-5.1-2.6-5.1-5.4
		C202.3,368.5,203.7,365.5,207.4,365.5 M207.4,374.1c1.9,0,2.6-1.8,2.6-3.2c0-1.8-0.8-3.3-2.6-3.3c-1.9,0-2.5,1.8-2.5,3.2
		C204.8,372.4,205.6,374.1,207.4,374.1"/>
	<polygon class="st2" points="222,365.8 222,367.7 216.7,367.7 216.7,369.9 221.5,369.9 221.5,371.9 216.7,371.9 216.7,376 
		214.1,376 214.1,365.8 	"/>
	<path class="st3" d="M270.5,357.7c0,0.2-0.4,1.1-1,2.6c-0.6,1.6-1.1,3.9-1.1,6.6c0,1.6,0.4,3.8,0.7,6l-1,1.3
		c-1.6-1.9-2.6-4.1-2.6-7.8c0-5.2,3.2-8.9,4.8-8.9C270.5,357.6,270.5,357.6,270.5,357.7 M314.5,372.4c0.2,0.5,0.3,1,0.3,1.4
		c0,0.5-0.2,1-0.5,1c-0.2,0-0.5-0.3-0.5-0.7C313.7,373.6,314.1,372.8,314.5,372.4 M269.4,374.5c0.3,1.6,0.5,3.2,0.5,4.5
		c0,3-1,6.4-2.7,6.4c-0.6,0-1.2-0.7-1.2-1.8C265.9,379.9,267.7,376.7,269.4,374.5 M320.2,367.8c-0.5,0.7-1,1.8-1,3.1
		c0,2.6,1.5,5.1,4.3,5.1c2.8,0,4.7-2.2,4.7-5.2c0-0.9,0-1-0.1-1.4c0.6-0.3,1.2-0.7,1.6-1.1c0.4-0.3,0.6-0.4,0.9-0.4
		c0.3,0,0.4,0.2,0.4,0.6v6.1c0,1,0.3,1.4,1.1,1.4c0.7,0,1.2-0.5,1.5-1.1c1-2.1,2.5-5,3.1-6c0.2-0.3,0.3-0.4,0.4-0.4
		c0.1,0,0.2,0.1,0.2,0.5v4.8c0,1.4,0.6,2.2,2,2.2c1.4,0,2.1-1.4,3.4-3.5c0.1-0.1,0.1-0.2,0.1-0.3c0-0.3-0.2-0.4-0.5-0.4
		c-0.3,0-0.4,0.3-1.4,1.3c-0.2,0.2-0.4,0.5-0.7,0.5c-0.1,0-0.2-0.2-0.2-0.3v-5.4c0-1.4-0.7-2-1.5-2c-0.7,0-1.2,0.3-1.8,1.1
		c-1,1.5-2.1,3.7-2.7,4.8c-0.1,0.1-0.2,0.3-0.2,0.3c-0.1,0-0.1-0.1-0.1-0.3v-4c0-1.1-0.3-2-1.5-2c-1.3,0-1.9,0.9-2.8,1.5
		c-0.6,0.4-1.1,0.7-1.5,0.9c-0.6-1.6-1.8-2.4-2.7-2.3c-1,0-1.6,0.6-1.6,1.6c0,1,0.6,1.7,1.4,2c0.5,0.2,0.9,0.2,1.5,0.2
		c0.2,0,0.4,0,0.5,0c0.1,0.3,0,0.7,0,1.1c0,1.5-0.9,3-2.6,3c-1.7,0-2.7-1.7-2.7-3.6c0-1.4,0.4-2.7,1.1-3.5c0.3-0.3,0.5-0.5,0.5-0.8
		c0-0.2-0.2-0.2-0.4-0.2c-1.2,0-2.5,0.5-3.4,1c-1.2,0.6-2.6,1.6-3.7,2.7c-0.5-1.2-1.2-2.3-1.6-3.2c-0.1-0.3-0.2-0.7-0.5-0.7
		c-0.2,0-0.3,0.2-0.5,0.6c-0.6,1.6-3.5,6.4-4.2,7.1c-0.1,0.1-0.2,0.2-0.2,0.2c-0.1,0-0.1,0-0.1-0.2v-5.4c0-1.4-0.6-2-1.4-2
		c-0.7,0-1.3,0.3-1.8,1.1c-1,1.5-2.2,3.8-2.8,4.9c-0.1,0.2-0.2,0.2-0.2,0.2c0,0-0.1-0.1-0.1-0.3v-4c0-1.4-0.6-2-1.4-2
		c-0.7,0-1.3,0.3-1.9,1.1c-1.3,2.2-3.5,5.6-3.9,6.1c-0.1,0.1-0.1,0.2-0.2,0.2c-0.1,0-0.1-0.1-0.1-0.2v-5.2c0-1.4-0.6-2-1.4-2
		c-1.1,0-1.7,1-2.1,1.7c-0.6,0.9-1.3,2.1-1.9,3.2c-0.4,0.8-0.7,1.4-0.9,1.4c-0.1,0-0.1-0.3-0.1-0.8v-4.1c1.9-2.2,3.1-4.8,3.1-7.7
		c0-1.7-0.7-2.6-1.9-2.6c-2.1,0-3.8,3.3-3.8,7.3v3.2c-1,0.6-1.9,0.9-3.1,1.1c-0.6-1.7-1.8-2.6-2.8-2.6c-0.9,0-1.6,0.6-1.6,1.6
		c0,1.6,1.6,2.3,3,2.3h0.4c0.1,0.3,0.1,0.7,0.1,1c0,1.5-0.9,3-2.6,3c-1.7,0-2.7-1.7-2.7-3.6c0-1.4,0.4-2.7,1.1-3.5
		c0.3-0.3,0.5-0.6,0.5-0.8c0-0.2-0.2-0.2-0.4-0.2c-1.2,0-3.8,1.6-6.9,4.7c-0.3-2.5-0.6-4.9-0.6-7.2c0-2.6,0.5-4.8,0.7-5.5
		c0.1-0.4,0.1-0.7,0.1-0.8c0-0.2-0.1-0.4-0.5-0.4c-2.5,0-8,4-8,9.9c0,4.2,1.5,6.3,4.2,8.9c-1.6,2.6-2.9,5.7-2.9,8.5
		c0,2,0.5,3.5,1.9,3.5c3.1,0,5.4-6.4,5.4-11.2c0-1.4-0.1-2.8-0.2-4.3c1.1-1.2,2.9-2.8,3.3-3c-0.2,0.6-0.3,1.3-0.3,2
		c0,2.6,1.5,5.1,4.3,5.1c2.7,0,4.7-2.2,4.7-5.2c0-0.4,0-0.7-0.1-1.1c1-0.2,1.9-0.4,2.7-1v6.2c0,0.8,0.6,1.1,1.1,1.1
		c0.7,0,1.1-0.5,1.6-1.6c0.4-0.9,1.6-3.1,2.3-4.3c0.6-1,0.9-1.6,1.1-1.6c0.1,0,0.1,0.2,0.1,0.5v5.3c0,1.4,0.7,1.8,1.4,1.8
		c0.6,0,1-0.3,1.4-0.9c1.6-2.3,3.3-5,4-6.2c0.1-0.2,0.3-0.4,0.4-0.4c0.1,0,0.2,0.1,0.2,0.5v5.5c0,1,0.3,1.4,1.1,1.4
		c0.7,0,1.2-0.5,1.4-1.1c1-2.1,2.5-4.9,3.2-6c0.2-0.3,0.3-0.5,0.4-0.5c0.1,0,0.2,0.2,0.2,0.6v5.2c0,1.4,0.7,1.8,1.4,1.8
		c0.9,0,1.4-0.6,2-1.3c1-1.3,2.5-3.7,3.4-5.2c0.3,0.5,0.7,1.1,0.9,1.7c-0.7,0.9-1.5,1.9-1.5,3c0,1.1,0.8,1.8,1.6,1.8
		c1.4,0,2.7-1.4,2.7-3.2c0-0.7-0.2-1.5-0.5-2.3C317.6,369.2,319.1,368,320.2,367.8 M288.9,363.2c0-4.6,0.9-5.3,1.2-5.3
		c0.5,0,0.6,0.3,0.6,2.1c0,1.8-0.8,4.2-1.7,5.5V363.2z M280.3,367.7c0-0.3,0.2-0.4,0.4-0.4c0.4,0,1,0.4,1.3,1.3
		C280.9,368.5,280.3,368.3,280.3,367.7 M324.9,367.7c0-0.3,0.2-0.4,0.4-0.4c0.4,0,1,0.4,1.4,1.3c-0.1,0-0.3,0-0.4,0
		C325.5,368.6,324.9,368.2,324.9,367.7"/>
	<path class="st3" d="M349.8,372.8c-0.5,0.1-0.8,0.1-1.4,0.1c-1.2,0-2.1-0.5-2.1-1.1c0-0.4,0.2-0.7,0.8-0.7
		C348.1,371,348.9,371.7,349.8,372.8 M355.9,373.1c0.6,0.7,1.2,1.4,2,2.2c-1.6,2.6-2.9,5.7-2.9,8.5c0,2,0.5,3.5,1.9,3.5
		c3.1,0,5.4-6.4,5.4-11.2c0-1.4-0.1-2.8-0.2-4.3c1.1-1.2,2.9-2.8,3.3-3c-0.2,0.6-0.3,1.3-0.3,2c0,2.6,1.5,5.1,4.4,5.1
		c2.7,0,4.7-2.2,4.7-5.2c0-0.4,0-0.7-0.1-1.1c1-0.2,1.9-0.4,2.7-1v6.2c0,0.8,0.6,1.1,1.1,1.1c0.7,0,1.1-0.5,1.6-1.6
		c0.4-0.9,1.6-3.1,2.3-4.3c0.6-1,0.9-1.6,1.1-1.6c0.1,0,0.1,0.2,0.1,0.5v5.3c0,1.4,0.7,1.8,1.4,1.8c0.6,0,1-0.3,1.4-0.9
		c1.6-2.3,3.3-5,4-6.2c0.1-0.2,0.3-0.4,0.4-0.4c0.1,0,0.2,0.1,0.2,0.5v5.5c0,1,0.3,1.4,1.1,1.4c0.7,0,1.2-0.5,1.5-1.1
		c1-2.1,2.5-4.9,3.2-6.1c0.2-0.2,0.3-0.5,0.4-0.5c0.1,0,0.2,0.2,0.2,0.6v5.2c0,1.4,0.7,1.8,1.4,1.8c0.9,0,1.4-0.6,2-1.3
		c1-1.3,2.5-3.7,3.4-5.2c0.3,0.5,0.6,1.1,0.9,1.7c-0.7,0.9-1.5,1.9-1.5,3c0,1.1,0.8,1.8,1.6,1.8c1.4,0,2.7-1.4,2.7-3.2
		c0-0.7-0.2-1.5-0.5-2.3c1.3-1.2,2.8-2.4,3.9-2.7c-0.5,0.7-1,1.8-1,3.1c0,2.6,1.5,5.1,4.3,5.1c2.8,0,4.7-2.2,4.7-5.2
		c0-0.9,0-1-0.1-1.4c0.7-0.3,1.2-0.7,1.6-1.1c0.4-0.3,0.7-0.4,0.9-0.4c0.3,0,0.4,0.2,0.4,0.6v6.1c0,1,0.3,1.4,1.1,1.4
		c0.7,0,1.2-0.5,1.5-1.1c1-2.1,2.5-5,3.1-6.1c0.2-0.2,0.3-0.4,0.4-0.4c0.1,0,0.2,0.1,0.2,0.5v4.8c0,1.4,0.6,2.2,2,2.2
		c1.4,0,2.1-1.4,3.4-3.5c0.1-0.1,0.1-0.2,0.1-0.3c0-0.3-0.2-0.4-0.5-0.4c-0.3,0-0.4,0.3-1.4,1.3c-0.2,0.2-0.4,0.5-0.7,0.5
		c-0.1,0-0.2-0.2-0.2-0.3v-5.4c0-1.4-0.7-2-1.5-2c-0.7,0-1.2,0.3-1.8,1.1c-1.1,1.5-2.1,3.7-2.7,4.8c-0.1,0.1-0.2,0.3-0.2,0.3
		c-0.1,0-0.1-0.1-0.1-0.3v-4c0-1.1-0.3-2-1.5-2c-1.3,0-1.9,0.9-2.8,1.5c-0.6,0.4-1.1,0.7-1.5,0.9c-0.6-1.6-1.8-2.4-2.7-2.3
		c-1,0-1.6,0.6-1.6,1.6c0,1,0.6,1.7,1.4,2c0.5,0.2,0.9,0.2,1.5,0.2c0.2,0,0.4,0,0.5,0c0.1,0.3,0,0.7,0,1.1c0,1.5-0.9,3-2.6,3
		c-1.7,0-2.7-1.7-2.7-3.6c0-1.5,0.4-2.7,1.1-3.5c0.3-0.3,0.5-0.5,0.5-0.8c0-0.1-0.2-0.2-0.4-0.2c-1.2,0-2.5,0.5-3.4,1
		c-1.2,0.6-2.6,1.6-3.7,2.7c-0.6-1.2-1.2-2.3-1.6-3.2c-0.1-0.3-0.2-0.7-0.5-0.7c-0.2,0-0.3,0.2-0.5,0.6c-0.6,1.6-3.5,6.4-4.2,7.1
		c-0.1,0.1-0.2,0.2-0.2,0.2c-0.1,0-0.1,0-0.1-0.2v-5.4c0-1.4-0.6-2-1.4-2c-0.7,0-1.3,0.3-1.8,1.1c-1,1.5-2.2,3.8-2.8,4.9
		c-0.1,0.2-0.2,0.2-0.2,0.2c0,0-0.1-0.1-0.1-0.3v-4c0-1.4-0.6-2-1.4-2c-0.7,0-1.3,0.3-1.8,1.1c-1.3,2.2-3.5,5.6-3.9,6.1
		c-0.1,0.1-0.1,0.2-0.2,0.2c-0.1,0-0.1-0.1-0.1-0.2v-5.2c0-1.4-0.6-2-1.4-2c-1.1,0-1.7,1-2.1,1.7c-0.6,0.9-1.3,2.1-1.9,3.2
		c-0.4,0.7-0.7,1.4-0.9,1.4c-0.1,0-0.1-0.3-0.1-0.8v-4.1c1.9-2.2,3.1-4.8,3.1-7.7c0-1.7-0.7-2.6-1.9-2.6c-2.1,0-3.8,3.3-3.8,7.3v3.2
		c-1,0.6-1.9,0.9-3.1,1.1c-0.6-1.7-1.8-2.6-2.8-2.6c-1,0-1.6,0.6-1.6,1.6c0,1.6,1.6,2.3,3,2.3h0.4c0.1,0.3,0.1,0.7,0.1,1
		c0,1.5-0.9,3-2.6,3c-1.7,0-2.7-1.7-2.7-3.6c0-1.5,0.4-2.7,1.1-3.5c0.3-0.3,0.5-0.6,0.5-0.8c0-0.1-0.2-0.2-0.4-0.2
		c-1.2,0-3.8,1.6-6.9,4.7c-0.3-2.5-0.6-4.9-0.6-7.2c0-2.6,0.5-4.9,0.7-5.5c0.1-0.4,0.1-0.7,0.1-0.8c0-0.2-0.1-0.4-0.5-0.4
		c-2.5,0-8,4-8,9.9c0,2.4,0.5,4.2,1.4,5.7c-0.3-0.1-0.6-0.1-0.9-0.1c-1,0-1.9,0.3-2.5,0.4v-0.6c0-1.3-0.3-3.2-0.9-3.8
		c-0.1-0.1-0.2-0.1-0.2-0.1c-0.3,0-0.6,0.1-0.9,0.3c-0.4,0.2-0.7,0.4-0.7,0.5c0,0.1,0,0.1,0.1,0.3c0.2,0.3,0.8,0.9,1,2.4
		c-1.1-1.1-2.2-1.5-3.8-1.5c-1.9,0-2.4,0.8-2.4,1.7c0,1.6,2.1,2.4,4.8,2.4c0.5,0,1-0.1,1.6-0.2c0,0.5,0.1,0.9,0.1,1.3
		c0,0.5,0.1,0.9,0.4,0.9c0.5,0,0.8-1.1,0.9-2.6c1-0.2,1.9-0.5,2.8-0.5C354.9,372.9,355.4,373,355.9,373.1 M361,357.7
		c0,0.2-0.4,1-1,2.6c-0.6,1.6-1.2,3.9-1.2,6.6c0,1.6,0.4,3.8,0.8,6l-1,1.3c-1.6-1.9-2.6-4.1-2.6-7.8c0-5.2,3.2-8.9,4.8-8.9
		C361,357.6,361,357.6,361,357.7 M404.9,372.4c0.2,0.5,0.3,1,0.3,1.4c0,0.5-0.2,1-0.5,1c-0.2,0-0.5-0.3-0.5-0.7
		C404.2,373.6,404.6,372.8,404.9,372.4 M359.9,374.5c0.2,1.6,0.5,3.2,0.5,4.5c0,3-1,6.4-2.7,6.4c-0.6,0-1.2-0.7-1.2-1.8
		C356.4,379.9,358.1,376.7,359.9,374.5 M379.4,363.2c0-4.6,0.9-5.3,1.2-5.3c0.5,0,0.6,0.3,0.6,2.1c0,1.8-0.8,4.2-1.7,5.5V363.2z
		 M370.8,367.7c0-0.3,0.2-0.4,0.4-0.4c0.4,0,1,0.4,1.3,1.3C371.4,368.5,370.8,368.3,370.8,367.7 M415.4,367.7c0-0.3,0.2-0.4,0.4-0.4
		c0.4,0,1,0.4,1.3,1.3c-0.1,0-0.3,0-0.4,0C416,368.6,415.4,368.2,415.4,367.7"/>
</g>
</svg>
