<?xml version="1.0" standalone="no"?>
<!DOCTYPE svg PUBLIC "-//W3C//DTD SVG 20010904//EN"
 "http://www.w3.org/TR/2001/REC-SVG-20010904/DTD/svg10.dtd">
<svg version="1.0" xmlns="http://www.w3.org/2000/svg"
 width="225.000000pt" height="225.000000pt" viewBox="0 0 225.000000 225.000000"
 preserveAspectRatio="xMidYMid meet">

<g transform="translate(0.000000,225.000000) scale(0.100000,-0.100000)"
fill="#000000" stroke="none">
<path d="M1640 1065 c0 -98 1 -105 20 -105 17 0 20 7 20 49 0 51 18 78 45 67
11 -4 15 -21 15 -61 0 -48 2 -55 20 -55 17 0 20 7 20 49 0 27 -3 57 -6 65 -10
26 -39 37 -68 26 -25 -9 -26 -8 -26 30 0 33 -3 40 -20 40 -19 0 -20 -7 -20
-105z"/>
<path d="M240 1061 l0 -101 54 0 c76 0 111 29 111 94 0 64 -31 93 -107 102
l-58 7 0 -102z m105 44 c45 -44 21 -113 -40 -118 l-30 -2 -3 73 c-3 72 -3 72
23 72 14 0 37 -11 50 -25z"/>
<path d="M580 1061 c0 -83 3 -101 15 -101 10 0 15 10 15 34 0 31 3 34 35 40
42 8 65 30 65 60 0 33 -30 55 -83 62 l-47 7 0 -102z m78 60 c8 -4 12 -19 10
-32 -2 -18 -10 -25 -30 -27 -25 -3 -28 0 -28 26 0 41 17 53 48 33z"/>
<path d="M1102 1153 c-18 -7 -34 -51 -27 -73 3 -10 19 -23 35 -30 45 -19 57
-37 37 -58 -14 -14 -22 -14 -47 -5 -27 10 -30 9 -30 -7 0 -26 58 -37 97 -18
21 10 29 21 31 46 3 27 -1 35 -28 50 -62 34 -66 38 -50 57 9 11 24 15 42 13
22 -4 28 -1 26 11 -3 16 -59 26 -86 14z"/>
<path d="M1550 1130 c0 -20 -5 -30 -15 -30 -8 0 -15 -4 -15 -10 0 -5 7 -10 15
-10 12 0 15 -13 15 -55 0 -43 4 -56 19 -65 28 -15 51 -12 51 5 0 8 -6 15 -14
15 -32 0 -37 89 -6 97 11 3 20 9 20 13 0 4 -9 10 -20 13 -14 3 -20 14 -20 31
0 16 -6 26 -15 26 -10 0 -15 -10 -15 -30z"/>
<path d="M460 1097 c-53 -27 -51 -109 3 -135 34 -16 87 -7 87 15 0 11 -6 14
-26 9 -33 -9 -64 1 -64 20 0 10 13 14 51 14 51 0 51 0 44 28 -12 49 -53 70
-95 49z m58 -39 c3 -14 -3 -18 -27 -18 -29 0 -41 17 -24 34 13 13 48 1 51 -16z"/>
<path d="M1447 1103 c-4 -3 -23 -6 -42 -5 l-35 1 0 -69 c0 -63 2 -70 20 -70
17 0 20 7 20 49 0 51 18 78 45 67 11 -4 15 -21 15 -61 0 -48 2 -55 20 -55 18
0 20 7 20 55 0 42 -5 60 -20 75 -21 21 -32 24 -43 13z"/>
<path d="M1825 1086 c-57 -57 -9 -147 69 -132 22 4 36 13 36 22 0 12 -8 13
-33 9 -26 -5 -39 -2 -52 12 -18 17 -17 18 38 21 56 3 57 3 51 30 -8 35 -22 49
-56 57 -21 5 -33 1 -53 -19z m73 -28 c3 -15 -4 -18 -32 -18 -38 0 -44 8 -24
28 17 17 52 11 56 -10z"/>
<path d="M1972 1094 c-33 -23 -28 -52 13 -70 20 -8 35 -21 35 -30 0 -13 -7
-15 -35 -11 -42 7 -50 -17 -9 -27 33 -9 61 1 74 24 14 27 4 44 -36 63 -40 20
-37 37 7 37 31 0 39 14 13 24 -24 9 -38 7 -62 -10z"/>
<path d="M730 1041 c0 -68 19 -97 54 -86 12 4 33 7 49 7 27 -1 27 -1 27 68 0
56 -3 70 -15 70 -11 0 -15 -11 -15 -41 0 -46 -14 -79 -35 -79 -21 0 -35 33
-35 79 0 30 -4 41 -15 41 -12 0 -15 -13 -15 -59z"/>
<path d="M910 1022 c28 -76 28 -95 3 -103 -8 -2 -9 -9 -4 -18 11 -16 45 0 56
26 4 10 20 53 36 96 26 72 27 77 10 77 -12 0 -21 -9 -25 -25 -3 -13 -11 -37
-17 -52 l-11 -28 -17 50 c-13 36 -23 51 -39 53 -21 3 -21 2 8 -76z"/>
<path d="M1210 1094 c0 -3 12 -40 27 -81 26 -73 26 -76 8 -89 -15 -11 -16 -17
-7 -26 10 -10 16 -8 32 7 20 21 84 184 76 193 -13 13 -34 -11 -46 -52 -7 -25
-16 -44 -20 -41 -4 2 -13 25 -20 50 -9 33 -18 45 -31 45 -11 0 -19 -3 -19 -6z"/>
<path d="M1163 785 c0 -22 2 -30 4 -17 2 12 2 30 0 40 -3 9 -5 -1 -4 -23z"/>
<path d="M1452 795 c0 -16 2 -22 5 -12 2 9 2 23 0 30 -3 6 -5 -1 -5 -18z"/>
<path d="M1472 785 c-1 -26 1 -35 7 -26 5 7 15 18 22 23 11 8 10 9 -3 4 -12
-3 -18 2 -21 17 -2 12 -5 4 -5 -18z"/>
<path d="M1061 794 c0 -11 3 -14 6 -6 3 7 2 16 -1 19 -3 4 -6 -2 -5 -13z"/>
<path d="M1546 792 c-2 -4 -1 -14 4 -22 7 -11 9 -9 7 8 -1 24 -3 26 -11 14z"/>
<path d="M671 774 c0 -11 3 -14 6 -6 3 7 2 16 -1 19 -3 4 -6 -2 -5 -13z"/>
<path d="M781 774 c0 -11 3 -14 6 -6 3 7 2 16 -1 19 -3 4 -6 -2 -5 -13z"/>
<path d="M831 774 c0 -11 3 -14 6 -6 3 7 2 16 -1 19 -3 4 -6 -2 -5 -13z"/>
<path d="M1110 776 c0 -8 4 -17 9 -20 5 -4 7 3 4 14 -6 23 -13 26 -13 6z"/>
<path d="M1186 775 c4 -8 8 -15 10 -15 2 0 4 7 4 15 0 8 -4 15 -10 15 -5 0 -7
-7 -4 -15z"/>
<path d="M1216 775 c4 -8 8 -15 10 -15 2 0 4 7 4 15 0 8 -4 15 -10 15 -5 0 -7
-7 -4 -15z"/>
<path d="M1276 777 c3 -10 9 -15 12 -12 3 3 0 11 -7 18 -10 9 -11 8 -5 -6z"/>
<path d="M1300 776 c0 -8 4 -17 9 -20 5 -4 7 3 4 14 -6 23 -13 26 -13 6z"/>
<path d="M1351 774 c0 -11 3 -14 6 -6 3 7 2 16 -1 19 -3 4 -6 -2 -5 -13z"/>
<path d="M1377 770 c3 -11 7 -20 9 -20 2 0 4 9 4 20 0 11 -4 20 -9 20 -5 0 -7
-9 -4 -20z"/>
<path d="M1570 775 c0 -8 4 -15 10 -15 5 0 7 7 4 15 -4 8 -8 15 -10 15 -2 0
-4 -7 -4 -15z"/>
<path d="M1630 775 c0 -8 4 -15 10 -15 5 0 7 7 4 15 -4 8 -8 15 -10 15 -2 0
-4 -7 -4 -15z"/>
<path d="M1662 770 c0 -14 2 -19 5 -12 2 6 2 18 0 25 -3 6 -5 1 -5 -13z"/>
<path d="M1741 774 c0 -11 3 -14 6 -6 3 7 2 16 -1 19 -3 4 -6 -2 -5 -13z"/>
<path d="M880 776 c0 -2 7 -7 16 -10 8 -3 12 -2 9 4 -6 10 -25 14 -25 6z"/>
<path d="M1091 772 c-1 -8 -6 -10 -13 -6 -8 5 -7 1 2 -10 15 -19 26 -7 17 17
-4 9 -6 9 -6 -1z"/>
</g>
</svg>
