<?xml version="1.0" standalone="no"?>
<!DOCTYPE svg PUBLIC "-//W3C//DTD SVG 20010904//EN"
 "http://www.w3.org/TR/2001/REC-SVG-20010904/DTD/svg10.dtd">
<svg version="1.0" xmlns="http://www.w3.org/2000/svg"
 width="200.000000pt" height="200.000000pt" viewBox="0 0 200.000000 200.000000"
 preserveAspectRatio="xMidYMid meet">

<g transform="translate(0.000000,200.000000) scale(0.100000,-0.100000)"
fill="#000000" stroke="none">
<path d="M0 1000 l0 -1000 1000 0 1000 0 0 1000 0 1000 -1000 0 -1000 0 0
-1000z m528 3 l-3 -108 -89 -3 c-100 -3 -106 0 -106 61 0 33 3 37 25 37 21 0
25 -5 25 -30 0 -29 1 -30 50 -30 l50 0 0 90 c0 90 0 90 25 90 l26 0 -3 -107z
m257 54 l31 -52 59 -5 60 -5 -42 -9 c-24 -4 -45 -12 -49 -17 -3 -5 4 -25 16
-44 l22 -35 -31 0 c-26 0 -34 6 -47 34 l-16 33 -65 -16 c-38 -10 -69 -24 -74
-34 -9 -14 -59 -25 -59 -13 0 3 15 31 33 63 19 32 46 79 61 106 37 65 61 64
101 -6z m395 33 c14 -21 12 -64 -2 -78 -9 -9 -9 -15 0 -24 16 -16 16 -70 0
-86 -8 -8 -49 -12 -120 -12 l-108 0 0 103 c0 57 3 107 8 111 4 4 53 6 110 4
78 -2 105 -7 112 -18z m160 -90 l0 -110 -25 0 -25 0 0 110 0 110 25 0 25 0 0
-110z m160 20 l0 -90 80 0 c73 0 80 -2 80 -20 0 -19 -7 -20 -105 -20 l-105 0
0 110 0 110 25 0 c25 0 25 -1 25 -90z"/>
<path d="M712 1025 c-11 -24 -10 -25 18 -25 33 0 35 3 20 31 -14 26 -25 24
-38 -6z"/>
<path d="M1000 1045 c0 -24 2 -25 70 -25 68 0 70 1 70 25 0 24 -2 25 -70 25
-68 0 -70 -1 -70 -25z"/>
<path d="M1000 955 c0 -24 2 -25 70 -25 68 0 70 1 70 25 0 24 -2 25 -70 25
-68 0 -70 -1 -70 -25z"/>
</g>
</svg>
