<?xml version="1.0" encoding="UTF-8"?>
<svg xmlns="http://www.w3.org/2000/svg" xmlns:xlink="http://www.w3.org/1999/xlink" width="612pt" height="792pt" viewBox="0 0 612 792" version="1.1">
<g id="surface1">
<path style=" stroke:none;fill-rule:nonzero;fill:rgb(100%,100%,100%);fill-opacity:1;" d="M 406 496 L 206 496 L 206 296 L 406 296 Z M 406 496 "/>
<path style=" stroke:none;fill-rule:nonzero;fill:rgb(5.11322%,30.152893%,51.712036%);fill-opacity:1;" d="M 225.375 411.238281 C 222.585938 411.238281 220.703125 410.734375 219.726563 409.726563 C 218.753906 408.71875 218.265625 406.824219 218.265625 404.035156 L 218.265625 397.710938 L 224.992188 396.355469 L 224.992188 405.511719 L 238.09375 405.511719 L 238.09375 380.761719 L 244.785156 380.761719 L 244.785156 404.035156 C 244.785156 406.824219 244.289063 408.71875 243.304688 409.726563 C 242.316406 410.734375 240.433594 411.238281 237.664063 411.238281 Z M 225.375 411.238281 "/>
<path style=" stroke:none;fill-rule:nonzero;fill:rgb(5.11322%,30.152893%,51.712036%);fill-opacity:1;" d="M 258.429688 411.238281 L 251.785156 411.238281 L 268.003906 380.761719 L 274.429688 380.761719 L 290.859375 411.238281 L 283.378906 411.238281 L 270.984375 386.671875 Z M 258.429688 411.238281 "/>
<path style=" stroke:none;fill-rule:nonzero;fill:rgb(5.11322%,30.152893%,51.712036%);fill-opacity:1;" d="M 321.859375 397.984375 L 306.660156 397.984375 L 306.660156 405.761719 L 321.859375 405.761719 C 323.136719 405.761719 324 405.558594 324.445313 405.15625 C 324.894531 404.75 325.117188 404.035156 325.117188 403.015625 L 325.117188 400.703125 C 325.117188 399.679688 324.894531 398.972656 324.445313 398.578125 C 324 398.183594 323.136719 397.984375 321.859375 397.984375 M 321.859375 385.734375 L 306.660156 385.734375 L 306.660156 392.96875 L 321.859375 392.96875 C 323.015625 392.96875 323.8125 392.804688 324.253906 392.480469 C 324.699219 392.15625 324.921875 391.589844 324.921875 390.785156 L 324.921875 387.917969 C 324.921875 387.132813 324.699219 386.570313 324.253906 386.238281 C 323.8125 385.902344 323.015625 385.734375 321.859375 385.734375 M 300.089844 411.238281 L 300.089844 380.761719 L 324.648438 380.761719 C 326.917969 380.761719 328.558594 381.234375 329.574219 382.175781 C 330.589844 383.121094 331.097656 384.621094 331.097656 386.683594 L 331.097656 390.382813 C 331.097656 391.84375 330.671875 393.007813 329.828125 393.878906 C 328.976563 394.753906 327.757813 395.296875 326.171875 395.507813 C 327.820313 395.738281 329.09375 396.363281 329.992188 397.382813 C 330.886719 398.402344 331.332031 399.730469 331.332031 401.371094 L 331.332031 405.269531 C 331.332031 407.289063 330.632813 408.789063 329.234375 409.765625 C 327.839844 410.75 325.714844 411.238281 322.863281 411.238281 Z M 300.089844 411.238281 "/>
<path style=" stroke:none;fill-rule:nonzero;fill:rgb(5.11322%,30.152893%,51.712036%);fill-opacity:1;" d="M 344.199219 380.761719 L 350.890625 380.761719 L 350.890625 411.238281 L 344.199219 411.238281 Z M 344.199219 380.761719 "/>
<path style=" stroke:none;fill-rule:nonzero;fill:rgb(5.11322%,30.152893%,51.712036%);fill-opacity:1;" d="M 365.523438 411.238281 L 365.523438 380.761719 L 372.210938 380.761719 L 372.210938 405.511719 L 393.738281 405.511719 L 393.738281 411.238281 Z M 365.523438 411.238281 "/>
<path style=" stroke:none;fill-rule:nonzero;fill:rgb(0%,52.828979%,36.37085%);fill-opacity:1;" d="M 266.839844 394.789063 L 260.933594 406.34375 L 302.816406 394.804688 Z M 266.839844 394.789063 "/>
</g>
</svg>
