<?xml version="1.0" standalone="no"?>
<!DOCTYPE svg PUBLIC "-//W3C//DTD SVG 20010904//EN"
 "http://www.w3.org/TR/2001/REC-SVG-20010904/DTD/svg10.dtd">
<svg version="1.0" xmlns="http://www.w3.org/2000/svg"
 width="225.000000pt" height="225.000000pt" viewBox="0 0 225.000000 225.000000"
 preserveAspectRatio="xMidYMid meet">

<g transform="translate(0.000000,225.000000) scale(0.100000,-0.100000)"
fill="#000000" stroke="none">
<path d="M1559 1571 c-92 -19 -144 -80 -143 -166 2 -89 30 -123 141 -168 73
-29 95 -62 70 -101 -15 -23 -24 -26 -73 -26 -30 0 -70 6 -88 14 l-34 14 -4
-60 c-1 -33 1 -63 7 -66 6 -4 56 -8 112 -10 90 -4 108 -2 147 18 66 31 90 70
94 150 4 92 -13 116 -121 168 -95 45 -112 65 -93 103 10 21 18 24 71 24 33 0
72 -3 88 -8 l27 -7 0 54 c0 49 -2 54 -25 60 -44 11 -139 15 -176 7z"/>
<path d="M143 1548 c7 -27 107 -536 107 -542 0 -8 169 -6 174 3 4 5 19 100 34
210 15 111 29 201 32 201 3 0 15 -78 28 -172 13 -95 26 -190 29 -210 l6 -38
87 0 c83 0 88 1 93 23 12 47 97 515 97 531 0 14 -10 16 -62 14 l-63 -3 -29
-192 c-17 -106 -32 -190 -34 -188 -3 3 -15 71 -28 152 -12 82 -25 167 -29 191
l-8 42 -87 0 -87 0 -23 -157 c-12 -87 -26 -174 -30 -193 -7 -33 -7 -34 -13
-10 -6 21 -57 343 -57 356 0 2 -32 4 -71 4 -69 0 -71 -1 -66 -22z"/>
<path d="M922 1288 l3 -283 70 0 70 0 5 123 5 123 63 -126 62 -125 85 2 c47 2
85 5 85 8 0 3 -22 41 -48 85 -26 44 -64 109 -84 145 l-37 66 53 84 c29 47 65
106 80 133 l28 47 -84 0 -83 0 -60 -113 -60 -112 -3 113 -3 112 -74 0 -75 0 2
-282z"/>
<path d="M1987 1559 c-27 -16 -38 -53 -26 -89 19 -53 76 -66 123 -29 73 57
-16 165 -97 118z"/>
<path d="M1987 1368 c-68 -52 -16 -161 65 -137 37 10 57 35 58 72 0 57 -78 98
-123 65z"/>
<path d="M1988 1136 c-26 -19 -39 -62 -28 -90 28 -74 150 -53 150 25 0 60 -76
100 -122 65z"/>
<path d="M1333 785 c0 -38 2 -53 4 -32 2 20 2 52 0 70 -2 17 -4 1 -4 -38z"/>
<path d="M1440 826 c0 -19 -4 -22 -25 -19 -19 4 -25 0 -30 -20 -11 -43 2 -68
36 -65 29 2 29 3 29 65 0 35 -2 63 -5 63 -3 0 -5 -11 -5 -24z m-5 -61 c0 -23
-4 -30 -20 -30 -21 0 -31 25 -21 51 11 28 41 12 41 -21z"/>
<path d="M923 780 c0 -36 2 -50 4 -31 l4 34 37 -34 37 -34 -32 35 -33 36 28
29 27 30 -32 -29 -31 -28 -5 28 c-2 16 -4 0 -4 -36z"/>
<path d="M1021 835 c-1 -16 35 -106 43 -108 4 -1 18 24 31 56 29 71 23 76 -8
5 l-23 -52 -21 55 c-12 30 -22 50 -22 44z"/>
<path d="M1170 780 c0 -63 9 -71 54 -54 18 7 22 39 6 49 -8 5 -7 11 1 21 16
19 -5 44 -37 44 -23 0 -24 -3 -24 -60z m55 30 c0 -8 -10 -16 -22 -18 -18 -3
-23 2 -23 18 0 16 5 21 23 18 12 -2 22 -10 22 -18z m0 -55 c0 -13 -8 -21 -22
-23 -19 -3 -23 1 -23 23 0 22 4 26 23 23 14 -2 22 -10 22 -23z"/>
<path d="M1987 828 c-68 -52 -16 -161 65 -137 37 10 57 35 58 72 0 57 -78 98
-123 65z"/>
<path d="M1283 765 c0 -27 2 -38 4 -22 2 15 2 37 0 50 -2 12 -4 0 -4 -28z"/>
<path d="M1494 770 c1 -44 2 -45 34 -46 32 -1 32 -1 31 45 l-2 46 -6 -40 c-5
-31 -10 -40 -26 -40 -16 0 -21 9 -26 40 l-7 40 2 -45z"/>
<path d="M1601 761 l2 -46 6 40 c5 31 10 40 26 40 16 0 21 -9 26 -40 l7 -40
-2 45 c-1 44 -2 45 -33 46 -33 1 -33 1 -32 -45z"/>
<path d="M1713 793 c-3 -10 -8 -22 -11 -27 -3 -5 0 -6 6 -2 7 4 12 14 12 22 0
21 38 17 45 -5 12 -40 -16 -65 -44 -38 -11 10 -13 9 -9 -3 3 -9 16 -15 31 -15
15 1 27 -2 27 -6 0 -14 -30 -31 -45 -25 -9 3 -13 2 -10 -4 9 -15 31 -12 49 6
10 10 16 33 16 63 0 45 -1 47 -30 49 -22 2 -32 -3 -37 -15z"/>
</g>
</svg>
