<svg xmlns="http://www.w3.org/2000/svg" viewBox="0 0 225.81 41.29"><defs><style>.cls-1{fill:#fff;}</style></defs><g id="Ebene_2" data-name="Ebene 2"><g id="Calque_1" data-name="Calque 1"><path class="cls-1" d="M11,20.53A5.51,5.51,0,1,1,5.51,15,5.5,5.5,0,0,1,11,20.53Z"/><path class="cls-1" d="M31.66,13.77a6.89,6.89,0,0,1-6.88-6.89,6.89,6.89,0,1,0-6.88,6.89,6.88,6.88,0,1,1,0,13.76,6.88,6.88,0,1,0,6.88,6.88,6.88,6.88,0,0,1,6.88-6.88,6.88,6.88,0,0,0,0-13.76Z"/><path class="cls-1" d="M60.64,27.32a2.7,2.7,0,0,1-2-.94,4,4,0,0,1-2.63.94h-.23c-2.16,0-4.27-1.17-4.27-3.88v-.13c0-3.64,4.14-3.74,6-4.16a.43.43,0,0,0,.34-.49A1.62,1.62,0,0,0,56.19,17H56a1.67,1.67,0,0,0-1.69,1,1.18,1.18,0,0,1-1.09.76A1.27,1.27,0,0,1,52,17a4.16,4.16,0,0,1,4-2.47h.18a4,4,0,0,1,4.19,3.92v5.75c0,.39,0,.6.41.7a1.23,1.23,0,0,1,1,1.25A1.16,1.16,0,0,1,60.64,27.32Zm-2.76-5.91c-1.82.5-3.9.39-3.9,2,0,.86.68,1.48,1.85,1.48h.23a1.8,1.8,0,0,0,1.82-1.82Z"/><path class="cls-1" d="M78.29,27.32a1.17,1.17,0,0,1-1.22-1.23v-7.3A1.83,1.83,0,0,0,75.22,17H75a1.83,1.83,0,0,0-1.85,1.82V26a1.22,1.22,0,0,1-1.24,1.28A1.21,1.21,0,0,1,70.65,26V18.79A1.83,1.83,0,0,0,68.8,17h-.23a1.83,1.83,0,0,0-1.85,1.82v7.3a1.18,1.18,0,0,1-1.25,1.23,1.19,1.19,0,0,1-1.24-1.23V15.75a1.19,1.19,0,0,1,1.24-1.25,1.21,1.21,0,0,1,1.25.67,2.71,2.71,0,0,1,1.85-.67h.23a4.13,4.13,0,0,1,3.1,1.27A4.3,4.3,0,0,1,75,14.5h.23c2.92,0,4.35,1.61,4.35,4.21v7.38A1.2,1.2,0,0,1,78.29,27.32Z"/><path class="cls-1" d="M91.16,27.32a2.7,2.7,0,0,1-2-.94,4,4,0,0,1-2.62.94h-.24c-2.16,0-4.26-1.17-4.26-3.88v-.13c0-3.64,4.13-3.74,6-4.16a.43.43,0,0,0,.34-.49A1.63,1.63,0,0,0,86.72,17h-.19a1.67,1.67,0,0,0-1.69,1,1.17,1.17,0,0,1-1.09.76,1.29,1.29,0,0,1-1.3-1.23,1.31,1.31,0,0,1,.11-.54,4.14,4.14,0,0,1,4-2.47h.19a4,4,0,0,1,4.18,3.92v5.75c0,.39,0,.6.42.7a1.23,1.23,0,0,1,1,1.25A1.15,1.15,0,0,1,91.16,27.32Zm-2.75-5.91c-1.82.5-3.9.39-3.9,2,0,.86.67,1.48,1.84,1.48h.24a1.81,1.81,0,0,0,1.82-1.82Z"/><path class="cls-1" d="M102.34,27.32a1.19,1.19,0,0,1-1.25-1.23v-7.3A1.78,1.78,0,0,0,99.3,17h-.24a1.8,1.8,0,0,0-1.81,1.82v7.3a1.25,1.25,0,0,1-2.5,0V15.75A1.19,1.19,0,0,1,96,14.5a1.31,1.31,0,0,1,1.25.67,2.15,2.15,0,0,1,1.81-.67h.24a4.16,4.16,0,0,1,4.29,4.29v7.3A1.18,1.18,0,0,1,102.34,27.32Z"/><path class="cls-1" d="M111,27.32h-.21a4.21,4.21,0,0,1-4.32-4.19V18.71a4.23,4.23,0,0,1,4.32-4.21H111a4.23,4.23,0,0,1,4.31,4.21v4.42A4.2,4.2,0,0,1,111,27.32Zm1.82-8.61A1.75,1.75,0,0,0,111,17h-.21a1.74,1.74,0,0,0-1.82,1.74v4.42a1.74,1.74,0,0,0,1.82,1.74H111a1.75,1.75,0,0,0,1.82-1.74Z"/><path class="cls-1" d="M125.53,27.32a1.09,1.09,0,0,1-1-.58l-2.29-3.66-2.29,3.66a1.09,1.09,0,0,1-1,.58,1.23,1.23,0,0,1-1.27-1.2,1.17,1.17,0,0,1,.18-.68l2.94-4.7-2.71-4.32a1,1,0,0,1-.18-.67,1.27,1.27,0,0,1,1.27-1.25,1.21,1.21,0,0,1,1,.62l2,3.28,2.06-3.28a1.18,1.18,0,0,1,1-.62,1.27,1.27,0,0,1,1.27,1.25,1,1,0,0,1-.18.67l-2.7,4.32,2.93,4.7a1.18,1.18,0,0,1,.19.68A1.24,1.24,0,0,1,125.53,27.32Z"/><path class="cls-1" d="M141.05,27.32h-.44a4.64,4.64,0,0,1-4.16-2.66,1.36,1.36,0,0,1-.13-.57,1.24,1.24,0,0,1,1.28-1.19c1.24,0,1.27,2,3,2h.44c1.46,0,2-.6,2-1.43,0-1.4-1.37-1.53-2.44-1.74-1.8-.34-4.06-1.09-4.06-3.3V18c0-2.58,2.81-3.46,4.47-3.46h.11c2.31,0,4,1.32,4,2.23a1.17,1.17,0,0,1-1.2,1.15c-1,0-1.19-.91-2.83-.91h-.11c-1.14,0-2,.47-2,1.06v.26c0,1.88,6.5.32,6.5,5.15C145.58,26.41,143,27.32,141.05,27.32Z"/><path class="cls-1" d="M152.49,27.32h-.2A4.2,4.2,0,0,1,148,23.13V18.71a4.23,4.23,0,0,1,4.32-4.21h.2a4.23,4.23,0,0,1,4.32,4.21v4.42A4.2,4.2,0,0,1,152.49,27.32Zm1.82-8.61A1.74,1.74,0,0,0,152.49,17h-.2a1.74,1.74,0,0,0-1.82,1.74v4.42a1.74,1.74,0,0,0,1.82,1.74h.2a1.74,1.74,0,0,0,1.82-1.74Z"/><path class="cls-1" d="M163.62,27.24a3.18,3.18,0,0,1-3.53-3.54V10.31a1.25,1.25,0,0,1,2.49,0V23.7a1.06,1.06,0,0,0,1,1.1,1.22,1.22,0,1,1,0,2.44Z"/><path class="cls-1" d="M174.78,27.32a1.27,1.27,0,0,1-1.25-.65,2.15,2.15,0,0,1-1.82.65h-.24a4.14,4.14,0,0,1-4.29-4.27v-7.3a1.25,1.25,0,0,1,2.5,0v7.3a1.78,1.78,0,0,0,1.79,1.82h.24a1.81,1.81,0,0,0,1.82-1.82v-7.3a1.25,1.25,0,1,1,2.49,0V26.09A1.18,1.18,0,0,1,174.78,27.32Z"/><path class="cls-1" d="M183.64,27.24a3.51,3.51,0,0,1-3.53-3.54V17.05h-.42a1.21,1.21,0,0,1-1.25-1.25,1.19,1.19,0,0,1,1.25-1.22h.42V10.31a1.19,1.19,0,0,1,1.22-1.25,1.22,1.22,0,0,1,1.27,1.25v4.27h.91a1.19,1.19,0,0,1,1.25,1.22,1.21,1.21,0,0,1-1.25,1.25h-.91V23.7a1.17,1.17,0,0,0,1,1.1,1.22,1.22,0,1,1,0,2.44Z"/><path class="cls-1" d="M188.89,27.32a1.18,1.18,0,0,1-1.24-1.23V15.75a1.19,1.19,0,0,1,1.24-1.25,1.21,1.21,0,0,1,1.25,1.25V26.09A1.19,1.19,0,0,1,188.89,27.32Zm0-15.24a1.17,1.17,0,0,1-1.22-1.22v-.55a1.18,1.18,0,0,1,1.22-1.25,1.2,1.2,0,0,1,1.25,1.25v.55A1.19,1.19,0,0,1,188.89,12.08Z"/><path class="cls-1" d="M197.94,27.32h-.21a4.2,4.2,0,0,1-4.31-4.19V18.71a4.23,4.23,0,0,1,4.31-4.21h.21a4.23,4.23,0,0,1,4.32,4.21v4.42A4.21,4.21,0,0,1,197.94,27.32Zm1.82-8.61A1.74,1.74,0,0,0,197.94,17h-.21a1.75,1.75,0,0,0-1.82,1.74v4.42a1.75,1.75,0,0,0,1.82,1.74h.21a1.74,1.74,0,0,0,1.82-1.74Z"/><path class="cls-1" d="M212.89,27.32a1.19,1.19,0,0,1-1.25-1.23v-7.3A1.78,1.78,0,0,0,209.85,17h-.23a1.8,1.8,0,0,0-1.82,1.82v7.3a1.25,1.25,0,0,1-2.5,0V15.75a1.19,1.19,0,0,1,1.25-1.25,1.31,1.31,0,0,1,1.25.67,2.16,2.16,0,0,1,1.82-.67h.23a4.16,4.16,0,0,1,4.29,4.29v7.3A1.18,1.18,0,0,1,212.89,27.32Z"/><path class="cls-1" d="M221.29,27.32h-.44a4.62,4.62,0,0,1-4.16-2.66,1.36,1.36,0,0,1-.13-.57,1.24,1.24,0,0,1,1.27-1.19c1.25,0,1.28,2,3,2h.44c1.46,0,2-.6,2-1.43,0-1.4-1.38-1.53-2.45-1.74-1.79-.34-4.05-1.09-4.05-3.3V18c0-2.58,2.81-3.46,4.47-3.46h.1c2.32,0,4,1.32,4,2.23a1.17,1.17,0,0,1-1.19,1.15c-1,0-1.2-.91-2.84-.91h-.1c-1.14,0-2,.47-2,1.06v.26c0,1.88,6.5.32,6.5,5.15C225.81,26.41,223.21,27.32,221.29,27.32Z"/></g></g></svg>