<?xml version="1.0" encoding="UTF-8"?><svg id="uuid-4bd7f995-c1ec-4958-a448-b515c5d411ad" xmlns="http://www.w3.org/2000/svg" width="189.4933" height="22.9923" viewBox="0 0 189.4933 22.9923"><defs><style>.uuid-d032a2cf-bb72-445d-b39a-f9528a42dbe9{fill:#fff;stroke-width:0px;}</style></defs><g id="uuid-fe473e9b-cd8a-4a46-a207-547e6c994b65"><path class="uuid-d032a2cf-bb72-445d-b39a-f9528a42dbe9" d="m6.1,11.3736c0,1.6842-1.3658,3.0505-3.0496,3.0505-1.6847,0-3.0505-1.3663-3.0505-3.0505s1.3658-3.0495,3.0505-3.0495c1.6837,0,3.0496,1.3658,3.0496,3.0495"/><path class="uuid-d032a2cf-bb72-445d-b39a-f9528a42dbe9" d="m17.536,7.6243c-2.1054,0-3.8124-1.707-3.8124-3.8119s-1.7066-3.8124-3.8115-3.8124-3.8119,1.707-3.8119,3.8124,1.7066,3.8119,3.8119,3.8119,3.8115,1.7066,3.8115,3.8119-1.7066,3.8124-3.8115,3.8124-3.8119,1.707-3.8119,3.8124,1.7066,3.8115,3.8119,3.8115,3.8115-1.7061,3.8115-3.8115,1.707-3.8124,3.8124-3.8124,3.8124-1.707,3.8124-3.8124-1.7075-3.8119-3.8124-3.8119"/><path class="uuid-d032a2cf-bb72-445d-b39a-f9528a42dbe9" d="m43.3705,8.5282c0-.813-.0871-1.51-.2614-2.0912s-.454-1.0526-.8391-1.4159c-.3843-.3633-.8922-.6317-1.5248-.806-.6308-.1743-1.3976-.2614-2.2977-.2614-.8713,0-1.6233.0688-2.2541.2065-.6326.1385-1.1763.291-1.6346.4575-.4566.1673-.8487.3163-1.1763.447-.3259.1307-.6282.1961-.9036.1961-.4653,0-.8426-.1455-1.1327-.4357-.291-.2902-.4357-.6971-.4357-1.2199,0-.2762.0436-.5193.1307-.7302.0871-.21.2396-.4174.4575-.6204.203-.2178.5481-.45,1.0351-.6971.4862-.2466,1.0778-.4718,1.7749-.6753.6971-.203,1.4882-.3773,2.3744-.5228.8853-.1451,1.8298-.2178,2.8318-.2178,2.8893,0,5.0572.65,6.5019,1.9492,1.4455,1.3,2.1679,3.1917,2.1679,5.675v7.646c0,.9733.0331,1.761.0976,2.3631.0662.603.1385,1.1005.2178,1.4926.0802.3921.1534.7119.2178.9585.0662.2466.0985.494.0985.7406,0,.2614-.0514.501-.1525.7189-.1019.2178-.2396.4104-.4139.5768-.1743.1673-.3956.2945-.6648.3816-.2684.0871-.5629.1307-.8818.1307-.3921,0-.7406-.0654-1.0456-.1961s-.5699-.3198-.7947-.5664c-.2257-.2466-.4148-.5446-.5664-.8931-.1534-.3485-.2727-.7337-.3599-1.1545h-.0654c-.4653.5664-1.0238,1.0744-1.6773,1.5248-.5524.3773-1.2417.7223-2.0694,1.0343s-1.7941.4688-2.8972.4688c-1.1763,0-2.2297-.1638-3.1586-.4906-.9297-.3268-1.7139-.7798-2.3526-1.361-.6396-.5812-1.1258-1.2669-1.4595-2.059-.3346-.7912-.501-1.6512-.501-2.5809,0-1.002.2178-1.8882.6535-2.6576s1.0561-1.4089,1.8629-1.9169c.8051-.508,1.7819-.8931,2.9294-1.1545,1.1467-.2614,2.4397-.3921,3.8774-.3921.6674,0,1.2669.0218,1.7967.0654.5306.0436.9837.0941,1.3619.1525.4357.0584.813.1307,1.1327.2178v-2.2873Zm0,5.5548c-.3189-.0871-.6735-.1595-1.0648-.2178-.3328-.0723-.7276-.1307-1.1841-.1743s-.9672-.0654-1.5318-.0654c-1.666,0-2.8972.2248-3.6945.6753-.7964.4505-1.1946,1.1179-1.1946,2.0041,0,.4357.0793.8347.2387,1.1981s.3982.6788.7171.9471c.3189.2692.7101.4836,1.1737.643s.9994.2396,1.6076.2396c.7825,0,1.4778-.142,2.086-.4252s1.1301-.5916,1.5649-.9254c.4923-.4069.9193-.8565,1.2817-1.3506v-2.5487Z"/><path class="uuid-d032a2cf-bb72-445d-b39a-f9528a42dbe9" d="m55.09,2.3417c0-.6387.1743-1.1327.5228-1.4813s.8417-.5228,1.4813-.5228c.3189,0,.6021.0401.8496.1198.2466.0802.4609.2035.6422.3703.1821.1673.3233.3668.4252.599.1011.2326.1743.501.2178.806l.1961,1.3288h.0871c.4209-.6387.9506-1.2129,1.5902-1.7209.2614-.2178.5664-.4283.9149-.6317.3485-.203.7328-.3847,1.1545-.5446.4209-.1595.8783-.2867,1.3724-.3812.4932-.0941,1.0378-.1416,1.6338-.1416,1.713,0,3.1481.3525,4.3018,1.0565,1.1554.7045,2.0442,1.6664,2.6689,2.8863.4932-.7258,1.0961-1.3793,1.808-1.9605.305-.2466.6457-.4901,1.0238-.7297.3773-.2396.7955-.4535,1.2521-.6426.4583-.1886.9585-.3376,1.5039-.4466.5437-.1089,1.1284-.1634,1.7531-.1634,1.2199,0,2.3273.1926,3.3215.5773.9951.3851,1.8446.9585,2.5495,1.7204.704.7624,1.2443,1.7035,1.6224,2.8214.3773,1.1179.5664,2.411.5664,3.8774v11.4363c0,.6823-.1995,1.2129-.5995,1.5902-.3991.3773-1.0055.5664-1.8185.5664-.8138,0-1.4194-.1891-1.8185-.5655-.3999-.3773-.5995-.9071-.5995-1.5893v-10.7915c0-1.0003-.1019-1.8594-.305-2.5783-.2039-.718-.4975-1.3087-.8818-1.7732-.3851-.4644-.8539-.8086-1.4055-1.0334-.5524-.2248-1.1624-.3372-1.8298-.3372-.4357,0-.8391.054-1.2085.1621-.3712.108-.7162.2492-1.0351.4226-.3198.1734-.6134.3686-.8818.5847-.2692.2161-.5123.44-.7302.6709-.494.5202-.9297,1.1188-1.307,1.7976,0,.1019.0183.345.054.7293.0366.3851.0549.8243.0549,1.3183v10.8263c0,.6823-.1995,1.2129-.5986,1.5902-.3999.3773-1.0064.5664-1.8193.5664-.8138,0-1.4194-.1891-1.8193-.5655-.3991-.3773-.5986-.9071-.5986-1.5893v-10.7915c0-1.0003-.1019-1.8594-.305-2.5783-.2039-.718-.4975-1.3087-.8827-1.7732-.3843-.4644-.853-.8086-1.4046-1.0334-.5524-.2248-1.1693-.3372-1.8516-.3372-.4069,0-.792.054-1.1545.1621-.3633.108-.7049.2422-1.0238.4008-.3198.1586-.6099.3424-.8713.5516-.2614.21-.494.4226-.6971.6387-.5089.5193-.9367,1.097-1.2852,1.7322v13.0265c0,.6823-.1995,1.2129-.5995,1.5902-.3991.3773-1.0055.5664-1.8185.5664-.8138,0-1.4194-.1891-1.8185-.5664-.3999-.3773-.5995-.9079-.5995-1.5902V2.3417Z"/><path class="uuid-d032a2cf-bb72-445d-b39a-f9528a42dbe9" d="m107.5879,8.5282c0-.813-.0871-1.51-.2614-2.0912s-.454-1.0526-.8391-1.4159c-.3843-.3633-.8922-.6317-1.5248-.806-.6308-.1743-1.3976-.2614-2.2977-.2614-.8713,0-1.6233.0688-2.2541.2065-.6326.1385-1.1763.291-1.6346.4575-.4566.1673-.8487.3163-1.1763.447-.3259.1307-.6282.1961-.9036.1961-.4653,0-.8426-.1455-1.1327-.4357-.291-.2902-.4357-.6971-.4357-1.2199,0-.2762.0436-.5193.1307-.7302.0871-.21.2396-.4174.4575-.6204.203-.2178.5481-.45,1.0351-.6971.4862-.2466,1.0778-.4718,1.7749-.6753.6971-.203,1.4882-.3773,2.3744-.5228.8853-.1451,1.8298-.2178,2.8318-.2178,2.8893,0,5.0572.65,6.5019,1.9492,1.4455,1.3,2.1679,3.1917,2.1679,5.675v7.646c0,.9733.0331,1.761.0976,2.3631.0662.603.1385,1.1005.2178,1.4926.0802.3921.1534.7119.2178.9585.0662.2466.0985.494.0985.7406,0,.2614-.0514.501-.1525.7189-.1019.2178-.2396.4104-.4139.5768-.1743.1673-.3956.2945-.6648.3816-.2684.0871-.5629.1307-.8818.1307-.3921,0-.7406-.0654-1.0456-.1961s-.5699-.3198-.7947-.5664c-.2257-.2466-.4148-.5446-.5664-.8931-.1534-.3485-.2727-.7337-.3599-1.1545h-.0654c-.4653.5664-1.0238,1.0744-1.6773,1.5248-.5524.3773-1.2417.7223-2.0694,1.0343s-1.7941.4688-2.8972.4688c-1.1763,0-2.2297-.1638-3.1586-.4906-.9297-.3268-1.7139-.7798-2.3526-1.361-.6396-.5812-1.1258-1.2669-1.4595-2.059-.3346-.7912-.501-1.6512-.501-2.5809,0-1.002.2178-1.8882.6535-2.6576s1.0561-1.4089,1.8629-1.9169c.8051-.508,1.7819-.8931,2.9294-1.1545,1.1467-.2614,2.4397-.3921,3.8774-.3921.6674,0,1.2669.0218,1.7967.0654.5306.0436.9837.0941,1.3619.1525.4357.0584.813.1307,1.1327.2178v-2.2873Zm0,5.5548c-.3189-.0871-.6735-.1595-1.0648-.2178-.3328-.0723-.7276-.1307-1.1841-.1743s-.9672-.0654-1.5318-.0654c-1.666,0-2.8972.2248-3.6945.6753-.7964.4505-1.1946,1.1179-1.1946,2.0041,0,.4357.0793.8347.2387,1.1981s.3982.6788.7171.9471c.3189.2692.7101.4836,1.1737.643s.9994.2396,1.6076.2396c.7825,0,1.4778-.142,2.086-.4252s1.1301-.5916,1.5649-.9254c.4923-.4069.9193-.8565,1.2817-1.3506v-2.5487Z"/><path class="uuid-d032a2cf-bb72-445d-b39a-f9528a42dbe9" d="m119.3073,2.3417c0-.6387.1743-1.1327.5228-1.4813s.8417-.5228,1.4813-.5228c.3189,0,.6021.0401.8496.1198.2466.0802.4609.2035.6422.3703.1821.1673.3233.3668.4252.599.1011.2326.1743.501.2178.806l.1961,1.3288h.0871c.4209-.6387.9585-1.2129,1.612-1.7209.2753-.2178.5916-.4283.9471-.6317.3564-.203.752-.3847,1.1876-.5446.4357-.1595.9114-.2867,1.4264-.3812.5158-.0941,1.0709-.1416,1.6669-.1416,1.2774,0,2.4249.1926,3.4418.5773,1.016.3851,1.8847.9585,2.6027,1.7204.7197.7624,1.2669,1.7035,1.6451,2.8214.3773,1.1179.5664,2.411.5664,3.8774v11.4363c0,.6823-.1995,1.2129-.5995,1.5902-.3991.3773-1.0055.5664-1.8185.5664-.8138,0-1.4194-.1891-1.8185-.5655-.3999-.3773-.5995-.9071-.5995-1.5893v-10.7915c0-1.0003-.1019-1.8594-.305-2.5783-.2039-.718-.5045-1.3087-.9044-1.7732-.3991-.4644-.8853-.8086-1.4586-1.0334-.5742-.2248-1.2242-.3372-1.95-.3372-.4357,0-.8426.054-1.2199.1621-.3782.108-.7337.2422-1.0674.4008-.3346.1586-.6352.3424-.9036.5516-.2692.21-.5123.4226-.7302.6387-.5228.5193-.9585,1.097-1.307,1.7322v13.0265c0,.6823-.1995,1.2129-.5995,1.5902-.3991.3773-1.0055.5664-1.8185.5664-.8138,0-1.4194-.1891-1.8185-.5664-.3999-.3773-.5995-.9079-.5995-1.5902V2.3417Z"/><path class="uuid-d032a2cf-bb72-445d-b39a-f9528a42dbe9" d="m144.1621,11.9482c0-1.8586.2649-3.5219.7955-4.9884s1.287-2.7046,2.2681-3.7145c.9811-1.009,2.1661-1.7819,3.5542-2.3195,1.388-.5372,2.9399-.806,4.6555-.806,1.5841,0,3.0305.2614,4.3392.7842,1.3079.5228,2.4345,1.2669,3.379,2.2324.9454.9663,1.6791,2.1313,2.2027,3.4967.5237,1.3654.7851,2.8754.7851,4.5309,0,1.8586-.2658,3.5219-.7964,4.9884-.5306,1.4665-1.2826,2.7081-2.2568,3.725-.9733,1.0168-2.1548,1.7897-3.5428,2.3195-1.388.5298-2.9399.7955-4.6555.7955-1.585,0-3.0349-.2614-4.3497-.7842-1.3157-.5228-2.4458-1.2669-3.3904-2.2332-.9454-.9654-1.6791-2.1269-2.2027-3.4853-.5237-1.3575-.7851-2.871-.7851-4.5414Zm4.9448-.4357c0,1.2486.156,2.3491.4679,3.2997.3128.9515.7441,1.7505,1.2965,2.3962.5516.6465,1.1981,1.1371,1.9387,1.4708s1.5388.501,2.3962.501c.8417,0,1.6303-.1595,2.3639-.4792.7328-.3198,1.368-.799,1.9056-1.4377.5367-.6387.9585-1.4307,1.2634-2.3744.305-.9437.4575-2.0407.4575-3.2893,0-1.2347-.1603-2.3308-.4792-3.2893-.3198-.9585-.7554-1.761-1.307-2.4075-.5524-.6457-1.1946-1.1362-1.9274-1.4699-.7337-.3337-1.5222-.501-2.3639-.501-.8574,0-1.6521.1629-2.3848.4897-.7337.3268-1.3732.806-1.9169,1.4377-.5455.6317-.9663,1.4203-1.2634,2.3639-.298.9437-.447,2.0407-.447,3.2893Z"/><path class="uuid-d032a2cf-bb72-445d-b39a-f9528a42dbe9" d="m171.1064,5.1248c-.203-.2318-.3843-.4383-.5437-.6195s-.2936-.3555-.4026-.5228c-.1089-.1664-.1961-.3337-.2614-.5001-.0654-.1673-.0976-.345-.0976-.5333,0-.3921.0871-.7432.2614-1.0552s.3956-.5877.664-.8273c.2692-.2392.5629-.4204.8827-.5437.3189-.1233.6239-.1852.9149-.1852.2466,0,.4679.0366.6648.1089.1952.0723.3729.1812.5333.3263.0436.0292.0906.0693.1412.1198.0514.051.1124.1163.1856.1956.0723.0797.1629.1886.2727.3268.108.1377.2501.3154.4243.5328l5.0424,6.2675,4.5858-6.1804c.1595-.2174.2902-.3952.3921-.5328.1011-.1381.1882-.247.2614-.3268.0723-.0793.1272-.1446.1629-.1961.0366-.0505.0767-.0902.1202-.1198.1743-.1738.3625-.3041.5664-.3912.203-.0871.4357-.1307.6971-.1307.2902,0,.5847.0584.8818.1743.298.1159.5699.2793.8173.4893.2466.2104.4426.4575.5882.7402.1446.2832.2178.5908.2178.9245,0,.1743-.0253.345-.0767.5115-.0505.1673-.1272.3302-.2292.4897s-.2292.3233-.3816.4897-.3163.352-.4906.555l-5.4519,6.4627,5.7351,6.8034c.1891.2326.3633.4392.5237.6213.1595.1821.298.3599.4139.5341.1168.1743.2074.345.2727.5123s.0985.3381.0985.5123c0,.3921-.0871.7485-.2614,1.0683s-.3956.596-.664.8286c-.2692.2326-.5638.4148-.8827.5455-.3198.1298-.6247.1961-.9149.1961-.2475,0-.4723-.0401-.6753-.1202-.2039-.0802-.3851-.1926-.5446-.3381-.0436-.0436-.0871-.0906-.1307-.1412-.0436-.0514-.1019-.1124-.1743-.1856-.0732-.0732-.1673-.1778-.2832-.3163-.1168-.1385-.2614-.3163-.4357-.5341l-5.4563-6.7816-4.9779,6.6945c-.1603.2178-.2936.3956-.4034.5341-.108.1385-.1952.2509-.2614.3381-.0645.0871-.1159.1525-.1516.1961-.0366.0436-.0767.0802-.1202.1089-.1743.1743-.3668.3093-.5768.4034-.2109.0941-.447.142-.7084.142-.291,0-.5812-.0584-.8713-.1743-.291-.1168-.555-.2797-.7955-.4914-.2387-.21-.4357-.4609-.5873-.752-.1534-.2902-.2292-.596-.2292-.9158,0-.1882.0288-.3633.0871-.5228.0575-.1603.1412-.3233.2501-.4906s.2353-.3381.3808-.5132c.1446-.1743.3041-.3625.4784-.5664l5.8318-6.9559-5.309-6.2893Z"/></g></svg>